<?xml version="1.0" encoding="utf-8"?>
<!-- Generator: Adobe Illustrator 21.1.0, SVG Export Plug-In . SVG Version: 6.00 Build 0)  -->
<svg version="1.1" id="圖層_1" xmlns="http://www.w3.org/2000/svg" xmlns:xlink="http://www.w3.org/1999/xlink" x="0px" y="0px"
	 viewBox="0 0 1280 800" style="enable-background:new 0 0 1280 800;" xml:space="preserve">
<style type="text/css">
	.st0{clip-path:url(#SVGID_2_);}
	.st1{clip-path:url(#SVGID_4_);fill:#1270B6;}
	.st2{clip-path:url(#SVGID_6_);}
	.st3{clip-path:url(#SVGID_8_);fill:#1270B6;}
	.st4{clip-path:url(#SVGID_10_);}
	.st5{clip-path:url(#SVGID_12_);fill:#1270B6;}
	.st6{fill-rule:evenodd;clip-rule:evenodd;fill:#95CDF7;}
	.st7{clip-path:url(#SVGID_14_);fill:#1270B6;}
	.st8{clip-path:url(#SVGID_16_);}
	.st9{clip-path:url(#SVGID_18_);fill:#1270B6;}
	.st10{fill:#9B9B9B;}
	.st11{clip-path:url(#SVGID_20_);}
	.st12{clip-path:url(#SVGID_22_);fill:#4A4A4A;}
	.st13{clip-path:url(#SVGID_24_);}
	.st14{clip-path:url(#SVGID_26_);fill:#757575;}
	.st15{fill-rule:evenodd;clip-rule:evenodd;fill:#757575;}
	.st16{clip-path:url(#SVGID_28_);fill:#4A4A4A;}
	.st17{fill:#4A4A4A;}
	.st18{fill-rule:evenodd;clip-rule:evenodd;fill:#4A4A4A;}
	.st19{clip-path:url(#SVGID_30_);}
	.st20{clip-path:url(#SVGID_32_);fill:#4A4A4A;}
	.st21{clip-path:url(#SVGID_34_);fill:#95CDF7;}
	.st22{fill-rule:evenodd;clip-rule:evenodd;fill:url(#SVGID_35_);}
	.st23{fill-rule:evenodd;clip-rule:evenodd;fill:url(#SVGID_36_);}
	.st24{fill-rule:evenodd;clip-rule:evenodd;fill:url(#SVGID_37_);}
	.st25{fill:url(#SVGID_38_);}
	.st26{fill:none;}
	.st27{clip-path:url(#SVGID_40_);fill:#9B9B9B;}
</style>
<g>
	<g>
		<defs>
			<rect id="SVGID_1_" x="288" y="291.2" width="21" height="15"/>
		</defs>
		<clipPath id="SVGID_2_">
			<use xlink:href="#SVGID_1_"  style="overflow:visible;"/>
		</clipPath>
		<g class="st0">
			<defs>
				<path id="SVGID_3_" d="M308.9,292.7c0-0.6-0.5-1-1-1h-18.3c-0.6,0-1,0.5-1,1c0,0.6,0.5,1,1,1h18.3
					C308.4,293.7,308.9,293.2,308.9,292.7"/>
			</defs>
			<clipPath id="SVGID_4_">
				<use xlink:href="#SVGID_3_"  style="overflow:visible;"/>
			</clipPath>
			<rect x="283.5" y="286.7" class="st1" width="30.4" height="12"/>
		</g>
	</g>
	<g>
		<defs>
			<rect id="SVGID_5_" x="288" y="291.2" width="21" height="15"/>
		</defs>
		<clipPath id="SVGID_6_">
			<use xlink:href="#SVGID_5_"  style="overflow:visible;"/>
		</clipPath>
		<g class="st2">
			<defs>
				<path id="SVGID_7_" d="M309,299c0-0.6-0.5-1-1-1h-18.3c-0.6,0-1,0.5-1,1c0,0.6,0.5,1,1,1H308C308.5,300.1,309,299.6,309,299"/>
			</defs>
			<clipPath id="SVGID_8_">
				<use xlink:href="#SVGID_7_"  style="overflow:visible;"/>
			</clipPath>
			<rect x="283.6" y="293" class="st3" width="30.4" height="12"/>
		</g>
	</g>
	<g>
		<defs>
			<rect id="SVGID_9_" x="288" y="291.2" width="21" height="15"/>
		</defs>
		<clipPath id="SVGID_10_">
			<use xlink:href="#SVGID_9_"  style="overflow:visible;"/>
		</clipPath>
		<g class="st4">
			<defs>
				<path id="SVGID_11_" d="M309,305.2c0-0.6-0.5-1-1-1h-18.3c-0.6,0-1,0.5-1,1c0,0.6,0.5,1,1,1H308
					C308.5,306.2,309,305.7,309,305.2"/>
			</defs>
			<clipPath id="SVGID_12_">
				<use xlink:href="#SVGID_11_"  style="overflow:visible;"/>
			</clipPath>
			<rect x="283.6" y="299.1" class="st5" width="30.4" height="12"/>
		</g>
	</g>
</g>
<path class="st6" d="M288.9,540.5c0,0.2,0.1,0.4,0.2,0.5c0.3,0.3,0.8,0.3,1.1,0l7.5-7.4l7.5,7.4c0.3,0.3,0.8,0.3,1.1,0
	c0.3-0.3,0.3-0.8,0-1.1l-8-7.9c-0.3-0.3-0.8-0.3-1.1,0l-8,7.9C289,540.1,288.9,540.3,288.9,540.5"/>
<g>
	<defs>
		<path id="SVGID_13_" d="M300.7,411.9c-1.9,0-3,1-3.7,1.9c-0.6-1-1.8-1.9-3.7-1.9c-2.6,0-4.4,2.4-4.4,4.5c0,2,1,3.2,3,5.2
			c1.8,2,4.7,5,4.7,5c0,0,0,0,0,0c0,0,0,0,0,0c0,0,0,0,0,0c0.1,0,0.1,0.1,0.2,0.1c0,0,0,0,0,0c0.1,0,0.1,0,0.2,0h0
			c0.1,0,0.1,0,0.2,0c0,0,0,0,0,0c0.1,0,0.1-0.1,0.2-0.1c0,0,0,0,0,0c0,0,0,0,0,0c0,0,0,0,0,0c0,0,2.8-3,4.6-5
			c1.9-2.1,2.9-3.3,2.9-5.2C304.9,414.3,303.2,411.9,300.7,411.9z M301.1,420.8c-1.3,1.5-3.3,3.6-4.1,4.5c-0.9-0.9-2.9-3-4.2-4.5
			c-2-2.2-2.6-3-2.6-4.4c0-1.4,1.1-3.3,3.1-3.3c2.7,0,3.1,2.3,3.2,2.4c0,0,0,0,0,0c0,0,0,0,0,0.1c0,0,0,0,0,0.1c0,0,0,0,0,0.1
			c0,0,0,0,0,0c0,0,0,0,0,0.1c0,0,0,0,0,0c0,0,0,0,0.1,0.1c0,0,0,0,0,0c0,0,0,0,0.1,0c0,0,0,0,0,0c0,0,0.1,0,0.1,0c0,0,0,0,0,0
			c0,0,0,0,0,0c0,0,0,0,0,0c0,0,0,0,0,0c0,0,0,0,0.1,0c0,0,0,0,0,0c0,0,0,0,0,0c0,0,0,0,0.1,0c0,0,0,0,0,0c0,0,0,0,0.1,0
			c0,0,0,0,0,0c0,0,0,0,0,0c0,0,0,0,0,0c0,0,0,0,0,0c0,0,0,0,0,0c0,0,0,0,0-0.1c0,0,0,0,0-0.1c0,0,0,0,0-0.1c0,0,0,0,0-0.1
			c0,0,0,0,0,0c0-0.1,0.4-2.4,3.1-2.4c2,0,3,2,3,3.3C303.7,417.8,303,418.7,301.1,420.8z"/>
	</defs>
	<clipPath id="SVGID_14_">
		<use xlink:href="#SVGID_13_"  style="overflow:visible;"/>
	</clipPath>
	<rect x="286.9" y="409.9" class="st7" width="20" height="19"/>
</g>
<g>
	<defs>
		<path id="SVGID_15_" d="M340,300.9l8.1-8c0.4-0.4,0.4-1.1,0-1.5c-0.4-0.4-1.1-0.4-1.5,0l-8.1,8l-8.1-8c-0.4-0.4-1.1-0.4-1.5,0
			c-0.4,0.4-0.4,1.1,0,1.5l8.1,8l-8.1,8c-0.4,0.4-0.4,1.1,0,1.5c0.2,0.2,0.5,0.3,0.8,0.3s0.6-0.1,0.8-0.3l8.1-8l8.1,8
			c0.2,0.2,0.5,0.3,0.8,0.3s0.6-0.1,0.8-0.3c0.4-0.4,0.4-1.1,0-1.5L340,300.9"/>
	</defs>
	<use xlink:href="#SVGID_15_"  style="overflow:visible;fill-rule:evenodd;clip-rule:evenodd;fill:#1270B6;"/>
	<clipPath id="SVGID_16_">
		<use xlink:href="#SVGID_15_"  style="overflow:visible;"/>
	</clipPath>
	<g class="st8">
		<defs>
			<rect id="SVGID_17_" x="328" y="291" width="21.2" height="20.5"/>
		</defs>
		<use xlink:href="#SVGID_17_"  style="overflow:visible;fill:#1270B6;"/>
		<clipPath id="SVGID_18_">
			<use xlink:href="#SVGID_17_"  style="overflow:visible;"/>
		</clipPath>
		<rect x="323.5" y="286.1" class="st9" width="30" height="29.7"/>
	</g>
</g>
<g>
	<path class="st10" d="M290,654c0-0.6,0.4-1,1-1h4.2c0.3,0,0.5,0.1,0.7,0.3l5.1,5.1c0.4,0.4,0.4,1,0,1.4l-4.2,4.2
		c-0.4,0.4-1,0.4-1.4,0l-5.1-5.1c-0.2-0.2-0.3-0.4-0.3-0.7V654z M289,654v4.2c0,0.5,0.2,1,0.6,1.4l5.1,5.1c0.4,0.4,0.9,0.6,1.4,0.6
		c0.5,0,1-0.2,1.4-0.6l4.2-4.2c0.4-0.4,0.6-0.9,0.6-1.4s-0.2-1-0.6-1.4l-5.1-5.1c-0.4-0.4-0.9-0.6-1.4-0.6H291
		C289.9,652,289,652.9,289,654z"/>
	<path class="st10" d="M291.7,655.7c0-0.6,0.4-1,1-1s1,0.4,1,1c0,0.6-0.4,1-1,1S291.7,656.2,291.7,655.7z M290.7,655.7
		c0,1.1,0.9,2,2,2c1.1,0,2-0.9,2-2c0-1.1-0.9-2-2-2C291.6,653.7,290.7,654.6,290.7,655.7z"/>
</g>
<g>
	<defs>
		<rect id="SVGID_19_" x="288.9" y="592.1" width="10.8" height="7"/>
	</defs>
	<clipPath id="SVGID_20_">
		<use xlink:href="#SVGID_19_"  style="overflow:visible;"/>
	</clipPath>
	<g class="st11">
		<defs>
			<path id="SVGID_21_" d="M288.7,592.7c0-0.1,0-0.3,0.1-0.4c0.2-0.2,0.5-0.2,0.6,0l4.6,5.2l4.6-5.2c0.2-0.2,0.5-0.2,0.6,0
				c0.2,0.2,0.2,0.5,0,0.7l-4.9,5.5c-0.2,0.2-0.5,0.2-0.6,0l-4.9-5.5C288.7,593,288.7,592.9,288.7,592.7"/>
		</defs>
		<clipPath id="SVGID_22_">
			<use xlink:href="#SVGID_21_"  style="overflow:visible;"/>
		</clipPath>
		<rect x="283.7" y="587.2" class="st12" width="20.7" height="16.6"/>
	</g>
</g>
<g>
	<path class="st6" d="M290.8,475.9l3.7-3.5c0.2-0.2,0.2-0.5,0-0.8c-0.2-0.2-0.6-0.2-0.8,0l-4.6,4.4c-0.1,0.1-0.2,0.2-0.2,0.4
		c0,0.1,0.1,0.3,0.2,0.4l4.6,4.5c0.1,0.1,0.2,0.2,0.4,0.2c0.1,0,0.3-0.1,0.4-0.2c0.2-0.2,0.2-0.5,0-0.8l-3.7-3.6H308
		c0.3,0,0.5-0.2,0.5-0.5c0-0.3-0.2-0.5-0.5-0.5H290.8z"/>
</g>
<g>
	<g>
		<defs>
			<path id="SVGID_23_" d="M313.2,80.2c-3.9-5.4-8.1-8.1-12.6-8c-7.2,0.2-12,7.7-12.2,8c-0.2,0.3-0.2,0.8,0,1.1
				c4,5.6,8.2,8.5,12.5,8.5c0.2,0,0.3,0,0.5,0c7.1-0.3,11.7-8.2,11.9-8.6C313.4,80.9,313.4,80.5,313.2,80.2z M301.3,87.9
				c-3.7,0.2-7.4-2.2-10.9-7.1c1.2-1.6,5.2-6.5,10.4-6.7c3.6-0.1,7.2,2.2,10.6,6.7C310.2,82.5,306.4,87.7,301.3,87.9z M301,76.2
				c-2.6,0-4.7,2.1-4.7,4.8s2.1,4.8,4.7,4.8s4.7-2.1,4.7-4.8S303.6,76.2,301,76.2z M301,83.8c-1.5,0-2.8-1.3-2.8-2.9
				s1.3-2.8,2.8-2.8s2.8,1.3,2.8,2.8S302.6,83.8,301,83.8z"/>
		</defs>
		<use xlink:href="#SVGID_23_"  style="overflow:visible;fill-rule:evenodd;clip-rule:evenodd;fill:#757575;"/>
		<clipPath id="SVGID_24_">
			<use xlink:href="#SVGID_23_"  style="overflow:visible;"/>
		</clipPath>
		<g class="st13">
			<defs>
				<rect id="SVGID_25_" x="288" y="72" width="27" height="18"/>
			</defs>
			<use xlink:href="#SVGID_25_"  style="overflow:visible;fill:#757575;"/>
			<clipPath id="SVGID_26_">
				<use xlink:href="#SVGID_25_"  style="overflow:visible;"/>
			</clipPath>
			<rect x="283.2" y="67.2" class="st14" width="35.1" height="27.6"/>
		</g>
	</g>
</g>
<g>
	<path class="st15" d="M344.2,71.2c-2.5,0-4,1.2-4.9,2.5c-0.8-1.3-2.4-2.5-5-2.5c-3.4,0-5.8,3.1-5.8,5.9c0,2.6,1.4,4.1,3.9,6.8
		c2.4,2.6,6.2,6.5,6.3,6.6c0,0,0,0,0,0c0,0,0,0,0,0c0,0,0,0,0,0c0.1,0.1,0.1,0.1,0.2,0.1c0,0,0,0,0,0c0.1,0,0.2,0.1,0.3,0.1h0
		c0.1,0,0.2,0,0.3-0.1c0,0,0,0,0,0c0.1,0,0.2-0.1,0.2-0.1c0,0,0,0,0,0c0,0,0,0,0,0c0,0,0,0,0,0c0,0,3.8-4,6.1-6.6
		c2.5-2.7,3.8-4.2,3.8-6.8C349.9,74.3,347.5,71.2,344.2,71.2z M344.8,82.9c-1.8,2-4.4,4.7-5.5,5.9c-1.2-1.2-3.8-4-5.7-5.9
		c-2.6-2.8-3.5-3.9-3.5-5.8c0-1.8,1.5-4.3,4.2-4.3c3.6,0,4.2,3,4.2,3.2c0,0,0,0,0,0c0,0,0,0.1,0,0.1c0,0,0,0,0,0.1c0,0,0,0,0,0.1
		c0,0,0,0,0,0.1c0,0,0,0,0.1,0.1c0,0,0,0,0,0c0,0,0.1,0,0.1,0.1c0,0,0,0,0,0c0,0,0.1,0,0.1,0.1c0,0,0,0,0,0c0,0,0.1,0,0.1,0
		c0,0,0,0,0.1,0c0,0,0,0,0,0c0,0,0,0,0.1,0c0,0,0,0,0.1,0c0,0,0.1,0,0.1,0c0,0,0,0,0,0c0,0,0,0,0,0c0,0,0.1,0,0.1,0c0,0,0,0,0.1,0
		c0,0,0,0,0.1,0c0,0,0,0,0.1,0c0,0,0,0,0.1,0c0,0,0,0,0.1,0c0,0,0,0,0.1-0.1c0,0,0,0,0-0.1c0,0,0,0,0-0.1c0,0,0,0,0-0.1
		c0,0,0,0,0-0.1c0,0,0-0.1,0-0.1c0,0,0,0,0,0c0-0.1,0.6-3.1,4.1-3.2c2.6,0,4.1,2.5,4.1,4.3C348.2,79,347.4,80.1,344.8,82.9z"/>
</g>
<g>
	<path class="st15" d="M387.2,71.2h-17.1c-1,0-1.8,0.8-1.8,1.7v11.3c0,1,0.8,1.7,1.8,1.7h1.2v4c0,0.3,0.2,0.6,0.5,0.7
		c0.1,0,0.2,0.1,0.3,0.1c0.2,0,0.4-0.1,0.5-0.2l5.6-4.6h9c1,0,1.8-0.8,1.8-1.7V73C389,72,388.2,71.2,387.2,71.2z M387.4,84.2
		c0,0.1-0.1,0.1-0.3,0.1h-9.3c0,0,0,0,0,0c0,0-0.1,0-0.1,0c0,0,0,0-0.1,0c0,0,0,0-0.1,0c0,0,0,0-0.1,0c0,0,0,0-0.1,0c0,0,0,0-0.1,0
		c0,0,0,0,0,0l-4.5,3.7v-3.1c0-0.4-0.4-0.8-0.8-0.8h-2c-0.2,0-0.3-0.1-0.3-0.1V73c0-0.1,0.1-0.2,0.3-0.2h17.1c0.2,0,0.3,0.1,0.3,0.2
		V84.2z M383.3,77.6c0.5,0,1,0.4,1,1c0,0.5-0.4,1-1,1c-0.5,0-1-0.4-1-1C382.4,78.1,382.8,77.6,383.3,77.6z M374.5,77.6
		c0.5,0,1,0.4,1,1c0,0.5-0.4,1-1,1c-0.5,0-1-0.4-1-1C373.6,78.1,374,77.6,374.5,77.6z M378.9,77.6c0.5,0,1,0.4,1,1c0,0.5-0.4,1-1,1
		c-0.5,0-1-0.4-1-1C378,78.1,378.4,77.6,378.9,77.6z"/>
</g>
<g>
	<defs>
		<path id="SVGID_27_" d="M420.7,151.4c-4.3,0-8.7,0-9.7,0c-2.1-0.1-2.8-1.7-2.8-2.8V132c0-0.5,0.4-0.9,0.9-0.9h6.7
			c0.2,0,0.5,0.1,0.6,0.3l3.3,3.2c1.7,0,8.4,0,10.2,0c1.1,0,1.8,0.4,2.2,0.8c0.7,0.8,0.7,1.8,0.7,1.9l0,11.3c0,1.1-0.4,1.7-0.8,2.1
			c-0.7,0.7-1.7,0.7-1.8,0.7c0,0,0,0,0,0C429.9,151.4,425.3,151.4,420.7,151.4z M410,132.9v15.7c0,0.3,0.2,0.9,1,0.9
			c2.1,0.1,19,0,19.2,0c0.5,0,0.7-0.3,0.7-1l0-11.3c0,0,0-0.4-0.2-0.6c-0.2-0.2-0.4-0.2-0.8-0.2c-2,0-10.5,0-10.5,0
			c-0.2,0-0.5-0.1-0.6-0.3l-3.3-3.2H410z"/>
	</defs>
	<clipPath id="SVGID_28_">
		<use xlink:href="#SVGID_27_"  style="overflow:visible;"/>
	</clipPath>
	<rect x="403.2" y="126.1" class="st16" width="34.6" height="30.3"/>
</g>
<path class="st17" d="M306.4,144.5c-1.8,0-5.4,0-8.3,0c-1.9,0-3.4,0-3.9,0c0,0,0,0,0,0c-1.2,0-2.4,0.5-3.3,1.4
	c-1.1,1.1-1.8,2.7-1.8,4.4v5.5c0,0.5,0.4,1,1,1h20.6c0.5,0,1-0.4,1-1v-5.9C311.6,147.3,309.8,144.5,306.4,144.5z M309.7,154.8h-18.6
	v-4.5c0-1.1,0.5-2.3,1.2-3c0.4-0.4,1-0.8,1.9-0.8c0.5,0,2.1,0,4,0c2.8,0,6.4,0,8.2,0c2.2,0,3.3,1.8,3.3,3.5V154.8z M300.4,143.3
	c3.2,0,5.9-2.6,5.9-5.8c0-3.2-2.6-5.8-5.9-5.8s-5.9,2.6-5.9,5.8C294.5,140.7,297.1,143.3,300.4,143.3z M300.4,133.6
	c2.2,0,3.9,1.7,3.9,3.9c0,2.1-1.8,3.9-3.9,3.9s-3.9-1.7-3.9-3.9C296.5,135.4,298.2,133.6,300.4,133.6z"/>
<path class="st18" d="M355.1,131.4c-0.1-0.2-0.3-0.3-0.4-0.3c-0.3-0.2-0.7-0.3-1.1-0.3h-23c-1.2,0-2.2,1-2.2,2.3v14.3
	c0,1.2,1,2.3,2.2,2.3h23c1.2,0,2.2-1,2.2-2.3v-14.3C355.8,132.4,355.5,131.8,355.1,131.4z M351.6,132.7l-9.5,6.4l-9.7-6.4H351.6z
	 M353.6,147.7h-23c-0.2,0-0.3-0.1-0.3-0.3v-13.8l11.3,7.5c0.2,0.1,0.3,0.2,0.5,0.2c0.2,0,0.4-0.1,0.5-0.2l11.3-7.6v13.9
	C353.9,147.6,353.7,147.7,353.6,147.7z"/>
<g>
	<g>
		<defs>
			<path id="SVGID_29_" d="M373.6,155.3c-0.2,0-0.4-0.1-0.5-0.2c-0.3-0.2-0.4-0.5-0.3-0.9l1.3-7.7l-5.5-5.4
				c-0.2-0.2-0.3-0.6-0.2-0.9c0.1-0.3,0.4-0.5,0.7-0.6l7.6-1.1l3.4-7c0.1-0.3,0.4-0.5,0.8-0.5s0.6,0.2,0.8,0.5l3.4,7l7.6,1.1
				c0.3,0,0.6,0.3,0.7,0.6c0.1,0.3,0,0.7-0.2,0.9l-5.5,5.4l1.3,7.7c0.1,0.3-0.1,0.7-0.3,0.9c-0.3,0.2-0.6,0.2-0.9,0.1l-6.8-3.6
				l-6.8,3.6C373.8,155.3,373.7,155.3,373.6,155.3z M370.9,141.2l4.6,4.5c0.2,0.2,0.3,0.5,0.2,0.8l-1.1,6.4l5.7-3
				c0.3-0.1,0.6-0.1,0.8,0l5.7,3l-1.1-6.4c0-0.3,0-0.6,0.2-0.8l4.6-4.5l-6.4-0.9c-0.3,0-0.5-0.2-0.7-0.5l-2.8-5.8l-2.8,5.8
				c-0.1,0.3-0.4,0.4-0.7,0.5L370.9,141.2z"/>
		</defs>
		<clipPath id="SVGID_30_">
			<use xlink:href="#SVGID_29_"  style="overflow:visible;"/>
		</clipPath>
		<g class="st19">
			<defs>
				<rect id="SVGID_31_" x="367.8" y="130.9" width="26" height="24.8"/>
			</defs>
			<clipPath id="SVGID_32_">
				<use xlink:href="#SVGID_31_"  style="overflow:visible;"/>
			</clipPath>
			<rect x="363.2" y="126.1" class="st20" width="35.2" height="34.2"/>
		</g>
	</g>
</g>
<g>
	<defs>
		<path id="SVGID_33_" d="M293.3,369.3c0.2,0,0.4-0.1,0.6-0.2l12.2-12.2c0.1-0.1,0.2-0.4,0.2-0.6c0-0.2-0.1-0.4-0.2-0.6l-3.4-3.4
			c-0.2-0.1-0.4-0.2-0.6-0.2s-0.4,0.1-0.6,0.2l-12.2,12.2c-0.2,0.2-0.2,0.4-0.2,0.6v3.4c0,0.4,0.4,0.8,0.8,0.8H293.3z M302,354
			l2.3,2.3l-1.3,1.3l-2.3-2.3L302,354z M290.7,365.4l8.9-9l2.3,2.3l-8.9,9h-2.3V365.4z M308.2,371.8h-18.4c-0.4,0-0.8,0.4-0.8,0.8
			s0.4,0.8,0.8,0.8h18.4c0.4,0,0.8-0.4,0.8-0.8S308.6,371.8,308.2,371.8"/>
	</defs>
	<clipPath id="SVGID_34_">
		<use xlink:href="#SVGID_33_"  style="overflow:visible;"/>
	</clipPath>
	<rect x="286.3" y="349.4" class="st21" width="25.4" height="26.7"/>
</g>
<g>
	<path class="st6" d="M355.6,359.9c-4.2-5.8-8.8-8.7-13.6-8.5c-7.8,0.2-13.1,8.2-13.3,8.6c-0.2,0.4-0.2,0.8,0,1.1
		c4.3,6,8.9,9.1,13.5,9.1c0.2,0,0.3,0,0.5,0c7.7-0.4,12.7-8.8,12.9-9.1C355.9,360.6,355.8,360.2,355.6,359.9z M342.7,368.1
		c-4,0.2-8-2.4-11.9-7.6c1.3-1.7,5.6-7,11.2-7.1c3.9-0.1,7.8,2.3,11.5,7.2C352.3,362.3,348.2,367.8,342.7,368.1z"/>
	<path class="st6" d="M342.4,355.5c-2.8,0-5.1,2.3-5.1,5.1s2.3,5.1,5.1,5.1s5.1-2.3,5.1-5.1S345.2,355.5,342.4,355.5z M342.4,363.7
		c-1.7,0-3-1.4-3-3.1c0-1.7,1.4-3,3-3s3,1.4,3,3C345.5,362.3,344.1,363.7,342.4,363.7z"/>
</g>
<linearGradient id="SVGID_35_" gradientUnits="userSpaceOnUse" x1="315.0312" y1="217.3873" x2="285.3645" y2="235.054">
	<stop  offset="0" style="stop-color:#4EDFF4"/>
	<stop  offset="1" style="stop-color:#2584E0"/>
</linearGradient>
<path class="st22" d="M306.4,223.7c-1.8,0-5.4,0-8.3,0c-1.9,0-3.4,0-3.9,0c0,0,0,0,0,0c-1.2,0-2.4,0.5-3.3,1.4
	c-1.1,1.1-1.8,2.7-1.8,4.4v5.5c0,0.5,0.4,1,1,1h20.6c0.5,0,1-0.4,1-1v-5.9C311.6,226.5,309.8,223.7,306.4,223.7z M309.7,234h-18.6
	v-4.5c0-1.1,0.5-2.3,1.2-3c0.4-0.4,1-0.8,1.9-0.8c0.5,0,2.1,0,4,0c2.8,0,6.4,0,8.2,0c2.2,0,3.3,1.8,3.3,3.5V234z M300.4,222.5
	c3.2,0,5.9-2.6,5.9-5.8s-2.6-5.8-5.9-5.8s-5.9,2.6-5.9,5.8S297.1,222.5,300.4,222.5z M300.4,212.9c2.2,0,3.9,1.7,3.9,3.9
	c0,2.1-1.8,3.9-3.9,3.9s-3.9-1.7-3.9-3.9C296.5,214.6,298.2,212.9,300.4,212.9z"/>
<linearGradient id="SVGID_36_" gradientUnits="userSpaceOnUse" x1="437.632" y1="209.2282" x2="403.9654" y2="230.5616">
	<stop  offset="0" style="stop-color:#4EDFF4"/>
	<stop  offset="1" style="stop-color:#2584E0"/>
</linearGradient>
<path class="st23" d="M420.7,230.7c-4.3,0-8.7,0-9.7,0c-2.1-0.1-2.8-1.7-2.8-2.8v-16.8c0-0.5,0.4-0.9,0.9-0.9h6.7
	c0.2,0,0.5,0.1,0.6,0.3l3.3,3.2c1.7,0,8.4,0,10.2,0c1.1,0,1.8,0.5,2.2,0.8c0.7,0.8,0.7,1.8,0.7,1.9l0,11.4c0,1.1-0.4,1.7-0.8,2.1
	c-0.7,0.7-1.7,0.8-1.8,0.8c0,0,0,0,0,0C429.9,230.7,425.3,230.7,420.7,230.7z M410,212v15.9c0,0.3,0.2,0.9,1,0.9
	c2.1,0.1,19,0,19.2,0c0.5,0,0.7-0.4,0.7-1l0-11.5c0,0,0-0.4-0.2-0.6c-0.2-0.2-0.4-0.2-0.8-0.2c-2,0-10.5,0-10.5,0
	c-0.2,0-0.5-0.1-0.6-0.3l-3.3-3.2H410z"/>
<linearGradient id="SVGID_37_" gradientUnits="userSpaceOnUse" x1="364.3773" y1="208.0399" x2="323.3773" y2="229.0399">
	<stop  offset="0" style="stop-color:#4EDFF4"/>
	<stop  offset="1" style="stop-color:#2584E0"/>
</linearGradient>
<path class="st24" d="M355.1,210.7c-0.1-0.2-0.3-0.3-0.4-0.3c-0.3-0.2-0.7-0.3-1.1-0.3h-23c-1.2,0-2.2,1-2.2,2.3v14.3
	c0,1.2,1,2.3,2.2,2.3h23c1.2,0,2.2-1,2.2-2.3v-14.3C355.8,211.7,355.5,211.1,355.1,210.7z M351.6,212l-9.5,6.4l-9.7-6.4H351.6z
	 M353.6,226.9h-23c-0.2,0-0.3-0.1-0.3-0.3v-13.8l11.3,7.5c0.2,0.1,0.3,0.2,0.5,0.2c0.2,0,0.4-0.1,0.5-0.2l11.3-7.6v13.9
	C353.9,226.8,353.7,226.9,353.6,226.9z"/>
<linearGradient id="SVGID_38_" gradientUnits="userSpaceOnUse" x1="394.82" y1="213.8605" x2="368.82" y2="232.8605">
	<stop  offset="0" style="stop-color:#4EDFF4"/>
	<stop  offset="1" style="stop-color:#2584E0"/>
</linearGradient>
<path class="st25" d="M393.3,218.5c-0.1-0.3-0.4-0.5-0.7-0.6l-7.6-1.1l-3.4-7c-0.1-0.3-0.4-0.5-0.8-0.5s-0.6,0.2-0.8,0.5l-3.4,7
	l-7.6,1.1c-0.3,0-0.6,0.3-0.7,0.6c-0.1,0.3,0,0.7,0.2,0.9l5.5,5.4l-1.3,7.7c-0.1,0.3,0.1,0.7,0.3,0.9c0.2,0.1,0.3,0.2,0.5,0.2
	c0.1,0,0.3,0,0.4-0.1l6.8-3.6l6.8,3.6c0.3,0.2,0.6,0.1,0.9-0.1c0.3-0.2,0.4-0.5,0.3-0.9l-1.3-7.7l5.5-5.4
	C393.4,219.2,393.4,218.9,393.3,218.5z M386.1,223.9c-0.2,0.2-0.3,0.5-0.2,0.8l1.1,6.4l-5.7-3c-0.3-0.1-0.6-0.1-0.8,0l-5.7,3
	l1.1-6.4c0-0.3,0-0.6-0.2-0.8l-4.6-4.5l6.4-0.9c0.3,0,0.5-0.2,0.7-0.5l2.8-5.8l2.8,5.8c0.1,0.3,0.4,0.4,0.7,0.5l6.4,0.9L386.1,223.9
	z"/>
<rect id="_x3C_切片_x3E_" x="288" y="71" class="st26" width="200" height="680"/>
<g>
	<defs>
		<path id="SVGID_39_" d="M300.9,732c-4.2,0-7.6,3.4-7.6,7.6c0,1.8,0.7,3.5,1.8,4.8l-5.2,5.2c-0.3,0.3-0.3,0.8,0,1.1
			c0.1,0.1,0.3,0.2,0.5,0.2s0.4-0.1,0.5-0.2l5.2-5.2c1.3,1.1,3,1.7,4.8,1.7c4.2,0,7.6-3.4,7.6-7.6C308.5,735.4,305.1,732,300.9,732z
			 M300.9,745.7c-1.7,0-3.2-0.7-4.3-1.7c0,0,0,0,0,0c0,0,0,0,0,0c-1.1-1.1-1.8-2.6-1.8-4.3c0-3.4,2.7-6.1,6.1-6.1s6.1,2.7,6.1,6.1
			C307,742.9,304.3,745.7,300.9,745.7z"/>
	</defs>
	<clipPath id="SVGID_40_">
		<use xlink:href="#SVGID_39_"  style="overflow:visible;"/>
	</clipPath>
	<rect x="287.2" y="729.5" class="st27" width="23.8" height="23.9"/>
</g>
</svg>
